<svg xmlns="http://www.w3.org/2000/svg" x="0px" y="0px" width="100" height="100" viewBox="0 0 64 64">
<path fill="#72caaf" fill-rule="evenodd" d="M14.999,59.999	c-2.355,0-5-2.653-5-5c0-7.685,3.188-24.549,6-37c1.367-6.953,5.824-14,16-14c19.524,0,21,0.473,21,18v9	c0,12.532-10.283,16.967-20,22C27.293,55.955,19.419,59.999,14.999,59.999z" clip-rule="evenodd"></path><path fill="#8d6c9f" fill-rule="evenodd" d="M8.223,36.325	l-1.971-0.344c-0.544-0.095-0.909-0.613-0.813-1.156c0.095-0.544,0.613-0.909,1.156-0.813l1.971,0.344	c0.544,0.095,0.909,0.613,0.813,1.156C9.285,36.055,8.766,36.421,8.223,36.325z" clip-rule="evenodd"></path><path fill="#8d6c9f" fill-rule="evenodd" d="M9.118,31.422	l-1.965-0.376c-0.543-0.104-0.899-0.628-0.795-1.169c0.104-0.543,0.628-0.899,1.169-0.795l1.965,0.376	c0.543,0.104,0.899,0.628,0.795,1.169C10.183,31.17,9.659,31.526,9.118,31.422z" clip-rule="evenodd"></path><path fill="#8d6c9f" fill-rule="evenodd" d="M10.081,26.527	l-1.96-0.4c-0.541-0.109-0.891-0.639-0.78-1.179c0.109-0.541,0.639-0.891,1.179-0.78l1.96,0.4c0.541,0.109,0.891,0.639,0.78,1.179	C11.15,26.289,10.621,26.638,10.081,26.527z" clip-rule="evenodd"></path><path fill="#8d6c9f" fill-rule="evenodd" d="M11.095,21.646	l-1.955-0.427c-0.54-0.117-0.883-0.651-0.764-1.189c0.117-0.54,0.651-0.883,1.189-0.764l1.955,0.427	c0.54,0.117,0.883,0.651,0.764,1.189C12.167,21.422,11.634,21.765,11.095,21.646z" clip-rule="evenodd"></path><path fill="#8d6c9f" fill-rule="evenodd" d="M12.131,16.798	l-1.933-0.509c-0.533-0.141-0.852-0.688-0.712-1.223c0.141-0.533,0.688-0.852,1.223-0.712l1.933,0.509	c0.533,0.141,0.852,0.688,0.712,1.223C13.213,16.619,12.666,16.938,12.131,16.798z" clip-rule="evenodd"></path><path fill="#8d6c9f" fill-rule="evenodd" d="M13.578,12.194	l-1.819-0.829c-0.501-0.229-0.724-0.823-0.495-1.325c0.229-0.501,0.823-0.724,1.325-0.495l1.819,0.829	c0.501,0.229,0.724,0.823,0.495,1.325C14.674,12.201,14.081,12.423,13.578,12.194z" clip-rule="evenodd"></path><path fill="#8d6c9f" fill-rule="evenodd" d="M15.866,8.003	l-1.595-1.205c-0.44-0.333-0.527-0.96-0.195-1.401c0.333-0.44,0.96-0.527,1.401-0.195l1.595,1.205	c0.44,0.333,0.527,0.96,0.195,1.401C16.934,8.249,16.307,8.335,15.866,8.003z" clip-rule="evenodd"></path><path fill="#8d6c9f" fill-rule="evenodd" d="M8.999,54.999	c0-7.816,3.217-24.792,6.021-37.205c1.416-7.208,6.145-14.795,16.979-14.795c9.373,0,15.297,0.059,18.456,2.656	c3.267,2.685,3.544,7.781,3.544,16.344v9c0,13.257-11.016,17.955-20.541,22.888c-5.473,2.836-13.731,7.112-18.459,7.112	C12.091,60.999,8.999,57.898,8.999,54.999z M32.539,52.113c9.909-5.133,19.46-9.305,19.46-21.113v-9	c0-9.075-0.451-12.857-2.815-14.799c-2.44-2.007-7.219-2.201-17.185-2.201c-9.52,0-13.705,6.508-15.023,13.207	c-2.82,12.488-5.977,29.24-5.977,36.793c0,1.796,2.197,4,4,4C19.087,58.999,26.707,55.133,32.539,52.113z" clip-rule="evenodd"></path><path fill="#faefde" d="M19.999,42.999l0.003-1c0-1.104,0.899-2,2.003-2h0.495	c3.585,0,6.5-2.912,6.5-6.5v-8c0-6.348,5.152-11.5,11.5-11.5h0.497c1.104,0,2.003,0.896,2.003,2l-0.001,1.116	c-0.06,1.051-0.933,1.884-1.999,1.884h-0.5c-3.587,0-6.5,2.913-6.5,6.5v8c0,6.349-5.153,11.5-11.5,11.5h-0.497	C20.898,44.999,19.999,44.103,19.999,42.999z"></path><path fill="#97e0bb" fill-rule="evenodd" d="M17.137,14.059	c2.139-5.445,6.628-10.06,14.863-10.06c10.047,0,15.315,0.127,18.061,2.636c-0.913,2.097-3.187,3.36-5.525,2.911	c-1.172-0.224-2.727-0.371-4.865-0.453c-2.117-0.081-4.627-0.093-7.671-0.093c-2.26,0-3.959,0.448-5.255,1.084	c-1.297,0.637-2.351,1.54-3.212,2.659C22.001,14.731,19.265,15.247,17.137,14.059z" clip-rule="evenodd"></path><path fill="#5dbc9d" fill-rule="evenodd" d="M21.553,53.01	c3.037-1.296,6.271-2.96,9.147-4.449c2.539-1.316,4.839-2.452,7.06-3.711c2.189-1.239,4.061-2.465,5.595-3.805	c2.873-2.507,4.645-5.433,4.645-10.045c0-2.759,2.24-5,5-5v5c0,12.532-10.283,16.967-20,22c-3.277,1.697-7.268,3.753-10.909,5.197	C19.389,59.266,18.217,54.434,21.553,53.01z" clip-rule="evenodd"></path><path fill="#faefde" fill-rule="evenodd" d="M27.998,27.001v5.999	h3.001v-5.999H27.998z" clip-rule="evenodd"></path><path fill="#8d6c9f" fill-rule="evenodd" d="M18.999,42.999l0.003-1	c0-1.657,1.348-3,3.003-3h0.495c3.032,0,5.5-2.464,5.5-5.5v-1.5c0-0.551,0.448-1,1-1c0.551,0,1,0.449,1,1v1.5	c0,4.141-3.363,7.5-7.5,7.5h-0.495c-0.555,0-1.003,0.451-1.003,1.001l-0.003,1c0,0.549,0.448,0.999,1.003,0.999h0.497	c5.793,0,10.5-4.703,10.5-10.5v-8c0-4.139,3.36-7.5,7.5-7.5h0.5c0.4,0,0.744-0.235,0.905-0.572l0.093-0.363l0.001-1.065	c0-0.549-0.449-1-1.003-1h-0.497c-5.796,0-10.5,4.705-10.5,10.5v2.501c0,0.552-0.449,1-1,1c-0.552,0-1-0.448-1-1v-2.501	c0-6.9,5.599-12.5,12.5-12.5h0.497c1.653,0,3.003,1.343,3.003,3.001l-0.003,1.116l-0.001,0.056c-0.089,1.579-1.4,2.827-2.996,2.827	h-0.5c-3.035,0-5.5,2.467-5.5,5.5v8c0,6.903-5.601,12.5-12.5,12.5h-0.497C20.347,45.999,18.999,44.658,18.999,42.999z" clip-rule="evenodd"></path><path fill="#8d6c9f" fill-rule="evenodd" d="M8.999,54.999	c0-7.816,3.217-24.792,6.021-37.205c1.416-7.208,6.145-14.795,16.979-14.795c9.373,0,15.297,0.059,18.456,2.656	c3.267,2.685,3.544,7.781,3.544,16.344v9c0,13.257-11.016,17.955-20.541,22.888c-5.473,2.836-13.731,7.112-18.459,7.112	C12.091,60.999,8.999,57.898,8.999,54.999z M32.539,52.113c9.909-5.133,19.46-9.305,19.46-21.113v-9	c0-9.075-0.451-12.857-2.815-14.799c-2.44-2.007-7.219-2.201-17.185-2.201c-9.52,0-13.705,6.508-15.023,13.207	c-2.82,12.488-5.977,29.24-5.977,36.793c0,1.796,2.197,4,4,4C19.087,58.999,26.707,55.133,32.539,52.113z" clip-rule="evenodd"></path><path fill="#8d6c9f" fill-rule="evenodd" d="M45.999,26.999	c0-0.551,0.448-1,1-1h2c0.551,0,1,0.449,1,1c0,0.552-0.449,1-1,1h-2C46.447,27.999,45.999,27.551,45.999,26.999z" clip-rule="evenodd"></path><path fill="#8d6c9f" fill-rule="evenodd" d="M48.887,33.073	l-1.995-0.152c-0.551-0.041-0.964-0.523-0.921-1.072c0.041-0.551,0.523-0.964,1.072-0.921l1.995,0.152	c0.551,0.041,0.964,0.523,0.921,1.072C49.918,32.702,49.437,33.115,48.887,33.073z" clip-rule="evenodd"></path><path fill="#8d6c9f" fill-rule="evenodd" d="M47.162,38.167	l-1.765-0.939c-0.487-0.26-0.672-0.865-0.413-1.353c0.26-0.487,0.865-0.672,1.353-0.413l1.765,0.939	c0.487,0.26,0.672,0.865,0.413,1.353C48.255,38.241,47.65,38.426,47.162,38.167z" clip-rule="evenodd"></path><path fill="#8d6c9f" fill-rule="evenodd" d="M43.623,42.15	l-1.341-1.483c-0.369-0.409-0.339-1.043,0.071-1.413c0.409-0.369,1.043-0.339,1.413,0.071l1.341,1.483	c0.369,0.409,0.339,1.043-0.071,1.413C44.627,42.59,43.994,42.559,43.623,42.15z" clip-rule="evenodd"></path><path fill="#8d6c9f" fill-rule="evenodd" d="M39.365,45.089	l-1.056-1.699c-0.292-0.468-0.148-1.085,0.321-1.376c0.468-0.292,1.085-0.148,1.376,0.321l1.056,1.699	c0.292,0.468,0.148,1.085-0.321,1.376C40.273,45.702,39.655,45.558,39.365,45.089z" clip-rule="evenodd"></path>
</svg>